# xmcd
#
# Track frame offsets: 
#        150
#        10403
#        21018
#        54070
#        68490
#        91112
#        107208
#        123678
#        135466
#        148268
#        172214
#        198704
#        218779
#        245194
#
# Disc length: 3613 seconds
#
# Revision: 0
# Processed by: cddbd v1.5.2PL0 Copyright (c) Steve Scherf et al.
# Submitted via: ExactAudioCopy v0.99pb5
#
DISCID=cf0e1b0e
DTITLE=Bandry Land - Share Croppers Whine
DYEAR=2008
DGENRE=americana
TTITLE0=Strength Of A Song
TTITLE1=Sharecropper's Wine
TTITLE2=Juvenile Delinquent
TTITLE3=Lap Of Luxury
TTITLE4=Oceans Apart
TTITLE5=Out West
TTITLE6=Carry My Cross
TTITLE7=Take My Place
TTITLE8=Over There
TTITLE9=90 Proof
TTITLE10=Sangre De Jesus
TTITLE11=Conspiracy Theory
TTITLE12=Last Man Standin'
TTITLE13=Gone Home
EXTD=
EXTT0=
EXTT1=
EXTT2=
EXTT3=
EXTT4=
EXTT5=
EXTT6=
EXTT7=
EXTT8=
EXTT9=
EXTT10=
EXTT11=
EXTT12=
EXTT13=
PLAYORDER=
